<svg xmlns="http://www.w3.org/2000/svg" viewBox="0 0 39.9 64"><defs><style>.cls-1{fill:#010101;}</style></defs><title>logo</title><g id="Capa_2" data-name="Capa 2"><g id="Capa_1-2" data-name="Capa 1"><path class="cls-1" d="M4,4V20.8H.1C0,13.9.1,7,0,0H39.9V54.8H0V50.7H35.9c0-15.4,0-30.8.1-46.3Z"/><path class="cls-1" d="M0,25.6c3,0,5.9-.1,8.9,0a5.5,5.5,0,0,1,3,9.9,5.6,5.6,0,0,1,2.7,3.8c.2,3-1.8,6.2-4.8,6.5s-6.5,0-9.8.1Zm3.9,3.6c0,1.5,0,3.1.1,4.6,1.7-.1,3.7.4,5.3-.5a2.3,2.3,0,0,0-.4-4A41.3,41.3,0,0,0,3.9,29.2Zm0,8.2v4.9h5A2.9,2.9,0,0,0,10.5,39l-.7-1C8.1,36.9,5.9,37.5,3.9,37.4Z"/><path class="cls-1" d="M.1,64c-.2-2.3-.1-4.7-.1-7,1.6.1,3.2,0,4.8,0-.1,2.3,0,4.6-.1,6.8a19.2,19.2,0,0,1-2.3-1.6Z"/></g></g></svg>